<svg fill="none" height="130" viewBox="0 0 350 130" width="350" xmlns="http://www.w3.org/2000/svg"><path d="m49.4 109c7.32-5.74 17.16-7.1 26.46-7s18.63 1.58 27.87.56c13.072-1.502 25.124-7.7937 33.83-17.66 5.91-6.76 9.81-17.61 3.79-24.28-5.41-6-14.87-4.56-22.94-4.77-20.41-.54-39.41-16.5-43.41-36.52-1.2408-6.4082-1.0324-13.0128.61-19.33h-75.61v130h41.88c-2.24-7.31 1.28-16.16 7.52-21z" fill="#c9e3fc"/><path d="m231.39 43.08c32.79-26.3 77.36-37.18 118.61-29.31v-13.77h-274.39c-1.6424 6.3172-1.8508 12.9218-.61 19.33 4 20 23 36 43.4 36.52 8.06.21 17.53-1.22 22.94 4.77 6 6.66 2.12 17.52-3.79 24.28-8.706 9.8663-20.758 16.158-33.83 17.66-9.25 1-18.57-.41-27.87-.56s-19.14 1.21-26.46 7c-6.23 4.89-9.76 13.73-7.51 21h82.58c18.414-7.292 35.446-17.679 50.36-30.71 20-17.55 35.82-39.57 56.57-56.21z" fill="#8dceff"/><path d="m350 13.77c-41.25-7.87-85.82 3-118.61 29.31-20.75 16.64-36.57 38.66-56.56 56.2-14.916 13.036-31.952 23.426-50.37 30.72h225.54z" fill="#58afff"/><path d="m152.588 64.8026 31.586-8.4634.613 2.2893-29.258 7.8396c-.608.1631-1.256.0806-1.804-.2297-.547-.3102-.951-.8233-1.125-1.4287z" fill="#533a71"/><path d="m208.415 51.0655c-1.488-5.5541-5.529-9.2751-13.314-7.189-2.386.6393-8.109 2.6179-9.88 3.8897l2.378 8.8768z" fill="#ffb942"/><path d="m187.551 56.656 2.379 8.8769c2.128.2164 8.115-.9322 10.501-1.5715 7.814-2.0938 9.424-7.3289 7.936-12.8829z" fill="#ffb942"/><g fill="#533a71"><path d="m180.08 54.351 1.077 4.0183 6.384-1.7108-2.378-8.8769c-2.363 1.5794-4.148 3.8855-5.083 6.5694z"/><path d="m181.157 58.3694 1.076 4.0182c2.154 1.8445 4.849 2.9391 7.679 3.1189l-2.371-8.8479z"/><path d="m210.82 61.9746-10.417 2.2322-5.572-20.7963 10.207-3.0147z"/><path d="m219.875 64.083-4.231 1.1336c-.907.243-1.445 1.1752-1.202 2.0821l1.17 4.366c.243.9069 1.175 1.4451 2.082 1.2021l4.231-1.1337c.906-.243 1.445-1.1752 1.202-2.082l-1.17-4.366c-.243-.9069-1.175-1.4451-2.082-1.2021z"/></g><path d="m204.652 40.4993 3.555-.9525c1.035 3.8637 3.42 13.1529 5.025 18.4066.598 1.962 1.871 2.3457 6.366 1.0791 5.237-1.4756 8.043-1.9376 11.597-2.8901 3.284-.8799 3.652 3.9289 4.928 7.9971 1.556 4.9975 3.79 13.3334 8.537 15.2087.821.3335 1.692.5271 2.576.5728 1.845 4.6821 3.292 8.0731 3.292 8.0731l-20.964 5.5655s-.259-.9659-.642-2.3955c-.342-1.275-.792-2.9557-1.278-4.7717-.148-.5505-.301-1.1204-.453-1.6903-.446-1.6614-.901-3.3614-1.323-4.9359-.135-.5023-.259-.9659-.391-1.4586-.652-2.4341-1.157-4.3176-1.342-4.8166-.029-.0941-.071-.184-.124-.2672-.281-.4319-.771-.4455-1.183-.5526s-.805-.2605-.945-.7821c-.517-1.9319-1.721-6.4234-1.721-6.4234l-6.384 1.7107c-.966.2589-1.953.1299-2.384-1.67-.389-1.2208-6.742-25.0071-6.742-25.0071z" fill="#e28100"/><path d="m223.026 61.6238c.476 1.7773 1.8 2.3542 3.7 1.7934 2.648-.782 4.959-2.8196 4.87-4.2347-.072-1.0783-2.733-.6551-5.467.0774-1.912.5124-3.45 1.0695-3.103 2.3639z" fill="#fbcb43"/><path d="m226.153 103.895 28.089-7.5268c.405-.1086.646-.5254.537-.9308l-1.957-7.3024c-.108-.4054-.525-.646-.93-.5374l-28.089 7.5265c-.406.1086-.646.5253-.538.9308l1.957 7.3021c.108.406.525.646.931.538z" fill="#533a71"/><path d="m208.207 39.5469 30.61-8.202 5.769 21.5305-4.337 1.1621c-.603 1.8076 3.392 16.7531 6.929 25.8579-.885-.0457-1.756-.2394-2.576-.5728-4.737-1.8366-6.981-10.2112-8.538-15.2087-1.261-4.0515-1.643-8.8771-4.927-7.9971-3.555.9525-6.351 1.4119-11.598 2.8901-4.495 1.2666-5.768.8829-6.366-1.0791-1.584-5.2177-4.006-14.4868-4.966-18.3809z" fill="#ffb942"/><path d="m241.116 30.729c1.711-.4585 3.534-.2185 5.069.6673 1.534.8859 2.654 2.3449 3.112 4.0562l2.306 8.6064c.45 1.7083.204 3.5251-.682 5.0529-.887 1.5278-2.343 2.6422-4.049 3.0994l-2.338.6263-5.756-21.4822z" fill="#533a71"/><path d="m291.563 41.6739-4.918 17.855 11.511 3.1708 4.918-17.8551z" fill="#dadada"/><path d="m291.559 41.6682-4.918 17.855 4.444 1.2242 4.918-17.855z" fill="#aeaeae"/><path d="m300.965 59.8902-13.64 49.5168c-.281 1.014-.762 1.962-1.414 2.787-.652.826-1.462 1.513-2.383 2.021-.922.509-1.935.828-2.981.939s-2.104.013-3.112-.291c-1.979-.627-3.637-1.999-4.624-3.826-.986-1.827-1.223-3.966-.661-5.965l13.601-49.3722c.047-.1696.127-.3284.235-.4672s.243-.2549.396-.3418c.153-.0868.321-.1427.496-.1643.175-.0217.352-.0088.522.0381l.56.1501 11.512 3.1675.561.1502c.17.047.329.1273.469.2362.139.109.255.2444.342.3985s.142.3239.163.4995.007.3535-.042.5236z" fill="#533a71"/><path d="m276.363 106.232 13.602-49.3724c.047-.1696.126-.3283.234-.4672.109-.1388.243-.2549.396-.3418.153-.0868.322-.1427.496-.1643.175-.0217.352-.0087.522.0381l-3.7-.9913-.56-.1501c-.169-.0468-.347-.0598-.521-.0381-.175.0216-.344.0775-.497.1643-.153.0869-.287.203-.395.3419-.108.1388-.188.2975-.235.4672l-13.602 49.3717c-.562 1.999-.325 4.138.662 5.966.986 1.827 2.644 3.199 4.624 3.826.78.235 1.591.347 2.405.334-1.468-.923-2.597-2.299-3.216-3.919-.619-1.621-.695-3.398-.215-5.065z" fill="#40295c"/><path d="m331.739 55.1949c-6.792-5.019-17.979-8.6687-24.384-8.7182l-8.489-5.1422.632-6.6843 11.442-1.1683 5.39 1.4442c4.454 1.188 8.387 3.8249 11.177 7.4948 2.79 3.67 4.279 8.1642 4.232 12.774z" fill="#dadada"/><path d="m331.739 55.1951c-6.792-5.0191-17.979-8.6687-24.384-8.7183l1.102-4.1148.194-.7245 1.62-.1352c4.591-.4255 9.193.6894 13.08 3.1687s6.838 6.1819 8.388 10.5241z" fill="#aeaeae"/><path d="m291.996 25.2483 3.25 11.669-8.405 7.0653-.579-.0412c-.12-2.1027-1.924-4.1391-4.559-4.8554-2.634-.7162-5.197.0776-6.376 1.8115l-.182-.1316-3.244-9.9175 8.409-8.8554.243-.0178c.149 2.1104 1.957 4.0547 4.541 4.7677 2.583.713 5.202-.0968 6.408-1.8546z" fill="#aeaeae"/><path d="m280.555 22.0068-.243.0177-5.188 18.8186.183.1317c-.231.3339-.407.7028-.521 1.0925l-9.725-2.73 5.863-21.2985 9.766 2.6895c-.118.4152-.164.8477-.135 1.2785z" fill="#dadada"/><path d="m276.654 36.1798-.223-.0595-1.483 5.5347.203.0544c-.066.0245-.126.0624-.176.1112-.051.0488-.091.1076-.117.1725l-9.797-2.656 1.683-6.2785 9.766 2.6894c-.01.0782-.003.1576.022.2324s.067.143.122.1994z" fill="#aeaeae"/><path d="m309.343 28.6232c.358.0987.694.2671.987.4954s.539.5121.722.8353c.184.3232.302.6793.348 1.0481s.019.7431-.08 1.1014l-.37 1.3813-2.452 8.878-1.102 4.1149-.396 1.4778c-.099.3583-.267.6937-.496.9869-.228.2933-.512.5387-.835.7222-.323.1836-.679.3017-1.048.3476s-.743.0187-1.101-.0801l-1.671-.4477-11.513-3.1676-4.173-1.1181c.099-.3815.139-.7761.117-1.1696l.579.0412 5.175-18.7703-.492-.3285c.219-.3284.385-.689.493-1.0687z" fill="#dadada"/></svg>