<svg fill="none" height="130" viewBox="0 0 350 130" width="350" xmlns="http://www.w3.org/2000/svg" xmlns:xlink="http://www.w3.org/1999/xlink"><clipPath id="a"><path d="m0 0h350v130h-350z"/></clipPath><g clip-path="url(#a)"><path d="m296.77 86.76c-10.45-1.09-21 .85-31.22 3.07s-20.55 4.75-31.08 4.86-21.47-2.44-29.39-9.29-12.18-18.59-8.28-28.34c2.93-7.33 9.66-12.37 14.18-18.85 3.626-5.3397 5.757-11.5524 6.172-17.9934s-.901-12.87577-3.812-18.63661c-.28-.54-.59-1.06-.9-1.5899998h137.56v130.0100098h-5.49c-1.269-6.27-3.639-12.266-7-17.71-4.443-7.037-10.411-12.9845-17.463-17.4036s-15.007-7.1964-23.277-8.1264z" fill="#ff9eb1"/><path d="m0 0h70.14l9.66 4.39c8.59 3.9 17.5 8 23.45 15.37 8.1 10 9.14 23.93 7.87 36.72s-4.47 25.52-3.46 38.33 6.27 24.83 14 35.19h-121.66z" fill="#fbe4e4"/><path d="m111.11 56.48c1.26-12.79.23-26.75-7.87-36.72-5.95-7.32-14.86-11.47-23.44-15.37l-9.66-4.39h142.29c.31.52.62 1 .9 1.59 2.915 5.75821 4.236 12.1915 3.826 18.6325-.409 6.441-2.535 12.655-6.156 17.9975-4.52 6.47-11.25 11.52-14.18 18.85-3.9 9.75.32 21.49 8.28 28.34s18.89 9.41 29.39 9.29 20.81-2.64 31.07-4.86 20.78-4.16 31.22-3.07c8.273.9272 16.232 3.7031 23.288 8.1223 7.055 4.4192 13.027 10.3687 17.472 17.4077 3.361 5.444 5.731 11.44 7 17.71h-222.86c-7.75-10.36-13-22.33-14-35.19s2.17-25.55 3.43-38.34z" fill="#ffbbcb"/><path d="m322.05 16.85h-121.36c-4.23 0-7.66 3.4295-7.66 7.66v72.33c0 4.23 3.43 7.66 7.66 7.66h121.36c4.23 0 7.66-3.43 7.66-7.66v-72.33c0-4.2305-3.43-7.66-7.66-7.66z" fill="#fff"/><path d="m318.13 25.8101h-113.54c-1.441 0-2.61 1.1685-2.61 2.61v64.51c0 1.4414 1.169 2.61 2.61 2.61h113.54c1.441 0 2.61-1.1686 2.61-2.61v-64.51c0-1.4415-1.169-2.61-2.61-2.61z" fill="#8edadb"/><path d="m252.81 41.24h-34.02c-1.845 0-3.34 1.4954-3.34 3.34v32.21c0 1.8446 1.495 3.34 3.34 3.34h34.02c1.845 0 3.34-1.4954 3.34-3.34v-32.21c0-1.8446-1.495-3.34-3.34-3.34z" fill="#e7f9f9"/><g fill="#558a89"><path d="m236.47 47.3101h-1.33c-1.187 0-2.15.9625-2.15 2.15v9.07c0 1.1874.963 2.15 2.15 2.15h1.33c1.187 0 2.15-.9626 2.15-2.15v-9.07c0-1.1875-.963-2.15-2.15-2.15z"/><path d="m220 69.1v1.33c0 1.1874.963 2.15 2.15 2.15h6.82c1.187 0 2.15-.9626 2.15-2.15v-1.33c0-1.1875-.963-2.15-2.15-2.15h-6.82c-1.187 0-2.15.9625-2.15 2.15z"/><path d="m240.48 69.11v1.33c0 1.1874.963 2.15 2.15 2.15h6.82c1.187 0 2.15-.9626 2.15-2.15v-1.33c0-1.1874-.963-2.15-2.15-2.15h-6.82c-1.187 0-2.15.9626-2.15 2.15z"/><path d="m301.61 41.24h-22.1c-.779-.0015-1.543.2174-2.203.6314-.66.4141-1.189 1.0064-1.527 1.7086l-4.61 9.57c-.269.5583-.409 1.1701-.41 1.79v21.74c0 1.0953.435 2.1458 1.21 2.9203.774.7746 1.825 1.2097 2.92 1.2097h31.31c1.095 0 2.146-.4351 2.92-1.2097.775-.7745 1.21-1.825 1.21-2.9203v-21.74c-.001-.6199-.141-1.2317-.41-1.79l-4.61-9.57c-.335-.6976-.86-1.2868-1.514-1.7006-.655-.4137-1.412-.6353-2.186-.6394z"/></g><path d="m293.81 56.13h-6.5c-.961 0-1.74.779-1.74 1.74v1.07c0 .961.779 1.74 1.74 1.74h6.5c.961 0 1.74-.779 1.74-1.74v-1.07c0-.961-.779-1.74-1.74-1.74z" fill="#8edadb"/><path d="m287.59 67.47v24.14c0 4.72-.26 9.52 0 14.23.173 2.88 1.167 5.649 2.865 7.981 1.698 2.333 4.028 4.13 6.715 5.179 4.19 1.63 8.36.68 12.61 0 1.71-.28 3.43-.68 5.15-.8 2.413-.069 4.789.601 6.81 1.92l10 5.6c2.88 1.61 5.46-2.81 2.58-4.42-6.32-3.54-13.36-9.14-21-8-3.08.44-6.13 1.12-9.22 1.52-2.536.376-5.119-.236-7.216-1.71s-3.549-3.697-4.054-6.21c-.189-1.573-.239-3.159-.15-4.74v-34.69c0-3.29-5.12-3.3-5.12 0z" fill="#79b5b1"/></g></svg>