<svg fill="none" height="130" viewBox="0 0 350 130" width="350" xmlns="http://www.w3.org/2000/svg" xmlns:xlink="http://www.w3.org/1999/xlink"><clipPath id="a"><path d="m0 0h350v130h-350z"/></clipPath><g clip-path="url(#a)"><path d="m53.23 86.76c10.45-1.09 21 .85 31.22 3.07s20.57 4.75 31.07 4.86 21.48-2.44 29.4-9.29 12.18-18.59 8.28-28.34c-2.93-7.33-9.66-12.37-14.18-18.85-3.626-5.3397-5.757-11.5524-6.172-17.9934s.901-12.87577 3.812-18.63661c.28-.54.59-1.06.9-1.5899998h-137.56v130.0100098h5.49c1.26904-6.27 3.639-12.266 7-17.71 4.4432-7.037 10.4114-12.9845 17.4632-17.4036s15.0069-7.1964 23.2768-8.1264z" fill="#77b590"/><path d="m350 0h-70.14l-9.66 4.39c-8.59 3.9-17.5 8-23.45 15.37-8.1 10-9.14 23.93-7.87 36.72s4.46 25.51 3.45 38.32-6.27 24.83-14 35.19h121.67z" fill="#ecf9f2"/><path d="m238.89 56.48c-1.26-12.79-.23-26.75 7.87-36.72 5.95-7.32 14.86-11.47 23.45-15.37l9.65-4.39h-142.29c-.31.52-.62 1-.9 1.59-2.915 5.75821-4.236 12.1915-3.826 18.6325.409 6.441 2.535 12.655 6.156 17.9975 4.52 6.47 11.25 11.52 14.18 18.85 3.9 9.75-.32 21.49-8.28 28.34s-18.9 9.4-29.37 9.28-20.81-2.64-31.07-4.86-20.78-4.16-31.22-3.07c-8.2734.9272-16.2324 3.7031-23.2879 8.1223s-13.0269 10.3687-17.4721 17.4077c-3.36099 5.444-5.73095 11.44-6.99999 17.71h222.83999c7.75-10.36 13-22.33 14-35.19s-2.17-25.54-3.43-38.33z" fill="#caead9"/><path d="m283.38 108.92c-37.807 14.166-79.463 14.166-117.27 0v-7.69h117.27z" fill="#af7522"/><path d="m225.43 40.2c14.422 0 28.254 5.7293 38.452 15.9275 10.199 10.1982 15.928 24.03 15.928 38.4525v6.65h-108.81v-6.65c0-7.1455 1.408-14.221 4.144-20.8219 2.736-6.601 6.746-12.598 11.801-17.6483s11.056-9.0548 17.659-11.7848c6.604-2.7299 13.681-4.1316 20.826-4.125z" fill="#ffb942"/><path d="m225.43 40.2c-6.667-.0026-13.278 1.2246-19.5 3.62v57.42h38.45v-57.64c-6.063-2.2541-12.481-3.4056-18.95-3.4z" fill="#af7522"/><path d="m220.1 36.14h10.1c3.031 0 5.939 1.2042 8.082 3.3478 2.144 2.1435 3.348 5.0508 3.348 8.0822v50.43c0 .862-.342 1.6886-.952 2.298-.609.61-1.436.952-2.298.952h-26.46c-.862 0-1.689-.342-2.298-.952-.61-.6094-.952-1.436-.952-2.298v-50.43c0-3.0314 1.204-5.9387 3.348-8.0822 2.143-2.1436 5.051-3.3478 8.082-3.3478z" fill="#ffb942"/><path d="m299.204 42.548-.13 18.5195 11.94.0834.129-18.5196z" fill="#717f88"/><path d="m299.198 42.5432-.129 18.5195 4.609.0322.13-18.5195z" fill="#5d6970"/><path d="m313 57.7101-.36 51.3599c-.009 1.052-.228 2.092-.644 3.058s-1.021 1.84-1.779 2.569c-.758.73-1.655 1.3-2.636 1.678-.982.379-2.029.557-3.081.525-2.074-.093-4.031-.989-5.457-2.499s-2.208-3.515-2.183-5.591l.36-51.2099c.001-.176.037-.35.106-.5121.068-.1621.168-.309.294-.4325.125-.1236.273-.2212.436-.2873s.338-.0995.514-.0981h.58l11.94.08h.58c.177.0013.352.0375.514.1067.163.0692.311.1699.434.2963.124.1264.221.2761.287.4403.065.1643.098.3398.095.5167z" fill="#b58058"/><path d="m301.23 108.84.36-51.21c.001-.176.037-.35.106-.5121.068-.1621.168-.309.294-.4325.125-.1235.273-.2211.436-.2873.163-.0661.338-.0995.514-.0981h-3.83-.58c-.176-.0014-.35.032-.514.0981-.163.0662-.311.1638-.436.2873-.126.1235-.226.2704-.294.4325-.069.1621-.105.3361-.106.5121l-.36 51.21c-.025 2.076.757 4.081 2.183 5.591 1.426 1.509 3.383 2.406 5.457 2.499.814.025 1.627-.076 2.41-.3-1.658-.511-3.104-1.548-4.121-2.953-1.018-1.405-1.551-3.103-1.519-4.837z" fill="#8e6047"/><path d="m341.51 45.21c-7.86-3.09-19.61-3.72-25.81-2.11l-9.53-2.77-1.12-6.62 10.75-4.09h5.58c4.61-.0053 9.091 1.524 12.736 4.3467 3.644 2.8228 6.246 6.7785 7.394 11.2433z" fill="#717f88"/><path d="m341.51 45.21c-7.86-3.09-19.61-3.72-25.81-2.11v-4.26-.75l1.53-.55c4.324-1.5991 9.058-1.7133 13.454-.3245 4.396 1.3887 8.205 4.2014 10.826 7.9945z" fill="#5d6970"/><path d="m295.37 26.57 6.16 10.43-6.29 9-.57.11c-.66-2-2.93-3.5-5.66-3.51s-5 1.42-5.69 3.4l-.21-.08-5.7-8.74 5.83-10.73.23-.08c.69 2 2.94 3.41 5.62 3.43s5-1.44 5.71-3.45z" fill="#5d6970"/><path d="m283.48 26.4001-.23.08-.14 19.52.21.08c-.137.3823-.211.7841-.22 1.19l-10.1-.12.15-22.09 10.13.07c-.007.4316.061.8613.2 1.27z" fill="#717f88"/><path d="m283.38 41.1h-.23v5.73h.21c-.057.0408-.105.0929-.142.1531-.036.0602-.059.1273-.068.1969l-10.15-.03v-6.5l10.13.07c.01.0782.038.153.081.2188.044.0658.101.121.169.1612z" fill="#5d6970"/><path d="m313 25.34c.372.0026.739.0784 1.081.2231.343.1446.653.3553.914.6199.261.2647.467.5781.607.9225.14.3443.211.7129.208 1.0845v1.43l-.07 9.21v4.26 1.53c-.003.3717-.078.7391-.223 1.0815-.145.3423-.355.6529-.62.9138s-.578.4672-.923.607c-.344.1398-.712.2103-1.084.2077h-1.73l-11.94-.08h-4.32c-.003-.3941-.067-.7854-.19-1.16l.57-.11.14-19.47-.56-.19c.126-.3739.194-.7653.2-1.16z" fill="#717f88"/></g></svg>