<svg fill="none" height="130" viewBox="0 0 350 130" width="350" xmlns="http://www.w3.org/2000/svg" xmlns:xlink="http://www.w3.org/1999/xlink"><clipPath id="a"><path d="m0 0h350v130h-350z"/></clipPath><g clip-path="url(#a)"><path d="m103.15 60.23c-11.78-11.96-26.15-21.16-37.94-33.08-7.62-7.67-14.27-17-17.6-27.15h-47.61v130h111c6.07-7.35 10.47-15.6 11.52-25.09 1.83-16.69-7.58-32.73-19.37-44.68z" fill="#ede9f0"/><path d="m350 0h-238.58c19.359 20.5404 44.338 34.9254 71.82 41.36 21.09 4.8 43.21 4.78 63.79 11.42 22.69 7.32 42.39 22.59 57 41.45 8.378 10.989 15.305 23.011 20.61 35.77h25.36z" fill="#7f68a0"/><path d="m247 52.78c-20.58-6.64-42.71-6.62-63.79-11.42-27.471-6.44-52.439-20.8246-71.79-41.36h-63.81c3.33 10.14 10 19.49 17.6 27.15 11.79 11.92 26.16 21.12 37.94 33.08s21.2 28 19.36 44.68c-1 9.49-5.45 17.74-11.52 25.09h213.65c-5.314-12.761-12.252-24.783-20.64-35.77-14.57-18.87-34.27-34.13-57-41.45z" fill="#baa8c6"/><path d="m320.51 16.05h-125.89c-2.596 0-4.7 2.1043-4.7 4.7v89.01c0 2.596 2.104 4.7 4.7 4.7h125.89c2.596 0 4.7-2.104 4.7-4.7v-89.01c0-2.5957-2.104-4.7-4.7-4.7z" fill="#fff"/><path d="m320.27 20.37h-124.62c-1.071 0-1.94.8686-1.94 1.94v85.89c0 1.071.869 1.94 1.94 1.94h124.62c1.071 0 1.94-.869 1.94-1.94v-85.89c0-1.0714-.869-1.94-1.94-1.94z" fill="#eee"/><path d="m208.1 24.41h-.95c-2.723 0-4.93 2.2073-4.93 4.93v71.31c0 2.723 2.207 4.93 4.93 4.93h.95c2.723 0 4.93-2.207 4.93-4.93v-71.31c0-2.7227-2.207-4.93-4.93-4.93z" fill="#aeaeae"/><path d="m209.68 24.41h-.64c-1.85 0-3.35 1.4999-3.35 3.35v74.47c0 1.85 1.5 3.35 3.35 3.35h.64c1.85 0 3.35-1.5 3.35-3.35v-74.47c0-1.8501-1.5-3.35-3.35-3.35z" fill="#dadada"/><path d="m228.5 24.41h-.95c-2.723 0-4.93 2.2073-4.93 4.93v71.31c0 2.723 2.207 4.93 4.93 4.93h.95c2.723 0 4.93-2.207 4.93-4.93v-71.31c0-2.7227-2.207-4.93-4.93-4.93z" fill="#aeaeae"/><path d="m230.08 24.41h-.64c-1.85 0-3.35 1.4999-3.35 3.35v74.47c0 1.85 1.5 3.35 3.35 3.35h.64c1.85 0 3.35-1.5 3.35-3.35v-74.47c0-1.8501-1.5-3.35-3.35-3.35z" fill="#dadada"/><path d="m248.89 24.41h-.95c-2.723 0-4.93 2.2073-4.93 4.93v71.31c0 2.723 2.207 4.93 4.93 4.93h.95c2.723 0 4.93-2.207 4.93-4.93v-71.31c0-2.7227-2.207-4.93-4.93-4.93z" fill="#aeaeae"/><path d="m250.47 24.41h-.64c-1.85 0-3.35 1.4999-3.35 3.35v74.47c0 1.85 1.5 3.35 3.35 3.35h.64c1.85 0 3.35-1.5 3.35-3.35v-74.47c0-1.8501-1.5-3.35-3.35-3.35z" fill="#dadada"/><path d="m269.29 24.41h-.95c-2.723 0-4.93 2.2073-4.93 4.93v71.31c0 2.723 2.207 4.93 4.93 4.93h.95c2.723 0 4.93-2.207 4.93-4.93v-71.31c0-2.7227-2.207-4.93-4.93-4.93z" fill="#aeaeae"/><path d="m270.87 24.41h-.64c-1.85 0-3.35 1.4999-3.35 3.35v74.47c0 1.85 1.5 3.35 3.35 3.35h.64c1.85 0 3.35-1.5 3.35-3.35v-74.47c0-1.8501-1.5-3.35-3.35-3.35z" fill="#dadada"/><path d="m289.69 24.41h-.95c-2.723 0-4.93 2.2073-4.93 4.93v71.31c0 2.723 2.207 4.93 4.93 4.93h.95c2.723 0 4.93-2.207 4.93-4.93v-71.31c0-2.7227-2.207-4.93-4.93-4.93z" fill="#aeaeae"/><path d="m291.26 24.41h-.64c-1.85 0-3.35 1.4999-3.35 3.35v74.47c0 1.85 1.5 3.35 3.35 3.35h.64c1.85 0 3.35-1.5 3.35-3.35v-74.47c0-1.8501-1.5-3.35-3.35-3.35z" fill="#dadada"/><path d="m310.08 24.41h-.95c-2.723 0-4.93 2.2073-4.93 4.93v71.31c0 2.723 2.207 4.93 4.93 4.93h.95c2.723 0 4.93-2.207 4.93-4.93v-71.31c0-2.7227-2.207-4.93-4.93-4.93z" fill="#aeaeae"/><path d="m311.66 24.41h-.64c-1.85 0-3.35 1.4999-3.35 3.35v74.47c0 1.85 1.5 3.35 3.35 3.35h.64c1.85 0 3.35-1.5 3.35-3.35v-74.47c0-1.8501-1.5-3.35-3.35-3.35z" fill="#dadada"/><path d="m330.92 24.41h-5.71v6.73h5.71z" fill="#ffb942"/><path d="m339.5 22.03h-6.08c-1.381 0-2.5 1.1193-2.5 2.5v6.08c0 1.3807 1.119 2.5 2.5 2.5h6.08c1.381 0 2.5-1.1193 2.5-2.5v-6.08c0-1.3807-1.119-2.5-2.5-2.5z" fill="#fff"/><g fill="#ffb942"><path d="m296.59 114.46h-3.33v11.5h3.33z"/><path d="m304.91 114.46h-3.33v11.5h3.33z"/><path d="m303.82 118.83h-9.99v1.87h9.99z"/></g><path d="m296.2 125.95h-2.62v4.05h2.62z" fill="#fff"/><path d="m304.51 125.95h-2.52v4.05h2.52z" fill="#fff"/><path d="m297.23 124.55h-4.69v1.4h4.69z" fill="#ffb942"/><path d="m305.59 124.55h-4.69v1.4h4.69z" fill="#ffb942"/></g></svg>