<svg height="552.756pt" viewBox="0 0 1190.55 552.756" width="1190.55pt" xmlns="http://www.w3.org/2000/svg" xmlns:xlink="http://www.w3.org/1999/xlink"><clipPath id="a"><path d="m.001.605h1190.55v551.546h-1190.55z" transform="matrix(1 0 0 -1 0 552.756)"/></clipPath><clipPath id="b"><path d="m699.452 155.062 2.706-2.531h2.003l-2.289 3.609zm-156.879-.352c-.616-.617-.947-1.584-.947-2.86v-.859h-1.474v-2.222h1.474v-9.329h2.663v9.329h3.036v2.201h-3.08v.638c0 1.209.528 1.76 1.54 1.76.573 0 1.034-.111 1.563-.286v2.244c-.594.176-1.233.308-2.157.308-1.144 0-2.002-.308-2.618-.924m250.664-15.27h2.663v16.062h-2.663zm-66.658 16.062v-6.249c-.836 1.1-2.047 2.046-3.961 2.046-2.772 0-5.39-2.178-5.39-6.028v-.044c0-3.851 2.662-6.029 5.39-6.029 1.893 0 3.103.968 3.961 2.178v-1.936h2.662v16.062zm-6.667-10.275v.044c0 2.31 1.518 3.718 3.344 3.718 1.783 0 3.367-1.475 3.367-3.718v-.044c0-2.223-1.584-3.719-3.367-3.719-1.804 0-3.344 1.474-3.344 3.719m-219.821-5.787h2.662v16.062h-2.662zm286.745 13.4h2.86v2.53h-2.86zm-18.854 0h2.86v2.53h-2.86zm-108.042 0h2.861v2.53h-2.861zm-187.502-1.541v-2.574h2.927v3.037h-1.123c-.109 1.122.529 1.803 1.871 2.045l-.287 1.145c-2.222-.176-3.388-1.21-3.388-3.653m-5.105 0v-2.574h2.927v3.037h-1.122c-.11 1.122.528 1.803 1.87 2.045l-.286 1.145c-2.223-.176-3.389-1.21-3.389-3.653m356.968 3.542v-3.014h1.122c.11-1.144-.528-1.826-1.87-2.068l.286-1.144c2.222.176 3.389 1.21 3.389 3.652v2.574zm-5.105 0v-3.014h1.145c.087-1.144-.551-1.826-1.893-2.068l.286-1.144c2.223.176 3.389 1.21 3.389 3.652v2.574zm-333.647 0v-15.401h2.706v4.951h3.059c3.388 0 6.161 1.804 6.161 5.258v.044c0 3.103-2.245 5.148-5.854 5.148zm2.706-2.464h3.147c2.024 0 3.323-.946 3.323-2.75v-.044c0-1.606-1.277-2.75-3.323-2.75h-3.147zm31.328 1.87v-3.19h-1.475v-2.288h1.475v-6.117c0-2.553 1.386-3.41 3.345-3.41 1.011 0 1.738.219 2.398.594v2.178c-.528-.264-1.056-.396-1.65-.396-.903 0-1.43.418-1.43 1.452v5.699h3.124v2.288h-3.124v3.19zm279.154-8.999v-.044c0-3.586 2.596-6.029 5.963-6.029 2.134 0 3.652.859 4.753 2.179l-1.563 1.386c-.924-.902-1.848-1.386-3.146-1.386-1.716 0-3.059 1.056-3.344 2.948h8.537c.022.264.043.506.043.748 0 3.345-1.87 6.249-5.566 6.249-3.322 0-5.677-2.728-5.677-6.051m5.655 3.873c1.76 0 2.772-1.342 2.949-3.058h-5.964c.242 1.803 1.387 3.058 3.015 3.058m-30.801-3.894v-.044c0-3.301 2.553-6.008 6.007-6.008 2.266 0 3.608.903 4.753 2.179l-1.607 1.584c-.836-.858-1.76-1.43-3.014-1.43-2.046 0-3.476 1.65-3.476 3.719v.044c0 2.024 1.43 3.696 3.366 3.696 1.32 0 2.178-.594 2.992-1.453l1.673 1.783c-1.1 1.188-2.465 2.002-4.643 2.002-3.498 0-6.051-2.772-6.051-6.072m-16.872 4.026c-.616 1.232-1.804 2.046-3.477 2.046-1.782 0-2.794-.968-3.542-2.002v1.76h-2.662v-11.617h2.662v6.556c0 1.783 1.012 2.883 2.487 2.883 1.473 0 2.353-1.013 2.353-2.816v-6.623h2.663v6.556c0 1.87 1.034 2.883 2.486 2.883 1.497 0 2.355-.99 2.355-2.839v-6.6h2.662v7.415c0 2.838-1.54 4.444-4.071 4.444-1.76 0-2.992-.814-3.916-2.046m-24.773-4.026v-.044c0-3.301 2.618-6.008 6.16-6.008 3.587 0 6.227 2.75 6.227 6.052v.044c0 3.322-2.618 6.028-6.183 6.028s-6.204-2.75-6.204-6.072m2.662 0v.044c0 2.024 1.364 3.696 3.498 3.696 2.091 0 3.565-1.695 3.565-3.74v-.044c0-2.003-1.364-3.675-3.521-3.675-2.068 0-3.542 1.694-3.542 3.719m-56.825.021v-.044c0-3.586 2.596-6.029 5.962-6.029 2.135 0 3.653.859 4.753 2.179l-1.562 1.386c-.925-.902-1.848-1.386-3.147-1.386-1.716 0-3.058 1.056-3.344 2.948h8.537c.022.264.044.506.044.748 0 3.345-1.87 6.249-5.567 6.249-3.322 0-5.676-2.728-5.676-6.051m5.654 3.873c1.761 0 2.772-1.342 2.949-3.058h-5.963c.242 1.803 1.386 3.058 3.014 3.058m-17.886-3.894v-.044c0-3.301 2.552-6.008 6.006-6.008 2.267 0 3.609.903 4.753 2.179l-1.606 1.584c-.836-.858-1.761-1.43-3.014-1.43-2.047 0-3.477 1.65-3.477 3.719v.044c0 2.024 1.43 3.696 3.367 3.696 1.319 0 2.178-.594 2.992-1.453l1.672 1.783c-1.1 1.188-2.464 2.002-4.642 2.002-3.499 0-6.051-2.772-6.051-6.072m-41.756.021v-.044c0-3.586 2.597-6.029 5.963-6.029 2.135 0 3.653.859 4.753 2.179l-1.563 1.386c-.923-.902-1.847-1.386-3.146-1.386-1.716 0-3.058 1.056-3.344 2.948h8.537c.022.264.044.506.044.748 0 3.345-1.87 6.249-5.566 6.249-3.323 0-5.678-2.728-5.678-6.051m5.655 3.873c1.761 0 2.772-1.342 2.948-3.058h-5.962c.242 1.803 1.386 3.058 3.014 3.058m-36.564-3.873v-.044c0-3.586 2.596-6.029 5.963-6.029 2.134 0 3.652.859 4.752 2.179l-1.561 1.386c-.925-.902-1.849-1.386-3.147-1.386-1.716 0-3.059 1.056-3.345 2.948h8.538c.022.264.043.506.043.748 0 3.345-1.87 6.249-5.566 6.249-3.323 0-5.677-2.728-5.677-6.051m5.654 3.873c1.761 0 2.773-1.342 2.95-3.058h-5.964c.242 1.803 1.386 3.058 3.014 3.058m-16.235.132c-.615 1.232-1.803 2.046-3.475 2.046-1.783 0-2.795-.968-3.544-2.002v1.76h-2.662v-11.617h2.662v6.556c0 1.783 1.013 2.883 2.487 2.883s2.354-1.013 2.354-2.816v-6.623h2.663v6.556c0 1.87 1.034 2.883 2.486 2.883 1.496 0 2.355-.99 2.355-2.839v-6.6h2.662v7.415c0 2.838-1.541 4.444-4.071 4.444-1.76 0-2.992-.814-3.917-2.046m-33.859-4.026v-.044c0-3.301 2.619-6.008 6.161-6.008 3.586 0 6.227 2.75 6.227 6.052v.044c0 3.322-2.618 6.028-6.183 6.028-3.564 0-6.205-2.75-6.205-6.072m2.663 0v.044c0 2.024 1.364 3.696 3.498 3.696 2.091 0 3.565-1.695 3.565-3.74v-.044c0-2.003-1.365-3.675-3.521-3.675-2.068 0-3.542 1.694-3.542 3.719m-24.002.021v-.044c0-3.586 2.596-6.029 5.963-6.029 2.134 0 3.652.859 4.752 2.179l-1.562 1.386c-.924-.902-1.848-1.386-3.147-1.386-1.716 0-3.058 1.056-3.344 2.948h8.537c.023.264.044.506.044.748 0 3.345-1.87 6.249-5.566 6.249-3.323 0-5.677-2.728-5.677-6.051m5.654 3.873c1.761 0 2.773-1.342 2.949-3.058h-5.963c.242 1.803 1.386 3.058 3.014 3.058m107.622-.682v2.618h-2.662v-11.617h2.662v4.422c0 3.081 1.629 4.599 3.961 4.599h.154v2.816c-.071.003-.142.005-.211.005-1.928 0-3.203-1.166-3.904-2.843m-74.182 0v2.618h-2.662v-11.617h2.662v4.422c0 3.081 1.628 4.599 3.96 4.599h.155v2.816c-.072.003-.143.005-.213.005-1.927 0-3.201-1.166-3.902-2.843m46.837-.727v-.044c0-2.222 1.914-2.926 3.63-3.41 1.365-.418 2.597-.726 2.597-1.628v-.044c0-.77-.661-1.255-1.805-1.255-1.188 0-2.53.485-3.807 1.431l-1.188-1.804c1.453-1.145 3.279-1.739 4.93-1.739 2.42 0 4.312 1.211 4.312 3.653v.044c0 2.09-1.914 2.861-3.609 3.389-1.364.44-2.618.792-2.618 1.65v.044c0 .66.594 1.144 1.628 1.144.968 0 2.157-.418 3.279-1.1l1.056 1.893c-1.232.813-2.816 1.32-4.269 1.32-2.31 0-4.136-1.343-4.136-3.544m85.512 2.553.704-2.09c1.057.44 2.024.725 3.323.725 1.87 0 2.883-.879 2.883-2.529v-.287c-.903.287-1.827.485-3.125.485-2.839 0-4.797-1.232-4.797-3.741v-.044c0-2.333 1.937-3.586 4.115-3.586 1.782 0 2.992.747 3.784 1.694v-1.452h2.597v6.886c0 1.519-.396 2.751-1.254 3.587-.815.836-2.113 1.299-3.851 1.299-1.848 0-3.103-.375-4.379-.947m1.584-7.371v.044c0 1.21 1.013 1.937 2.729 1.937 1.056 0 1.958-.198 2.641-.463v-.792c0-1.474-1.343-2.487-3.103-2.487-1.277 0-2.267.639-2.267 1.761m-193.664 7.371.705-2.09c1.056.44 2.024.725 3.322.725 1.87 0 2.883-.879 2.883-2.529v-.287c-.902.287-1.826.485-3.125.485-2.838 0-4.796-1.232-4.796-3.741v-.044c0-2.333 1.936-3.586 4.114-3.586 1.783 0 2.993.747 3.785 1.694v-1.452h2.597v6.886c0 1.519-.397 2.751-1.255 3.587-.814.836-2.112 1.299-3.851 1.299-1.848 0-3.102-.375-4.379-.947m1.585-7.371v.044c0 1.21 1.012 1.937 2.728 1.937 1.057 0 1.959-.198 2.641-.463v-.792c0-1.474-1.342-2.487-3.102-2.487-1.277 0-2.267.639-2.267 1.761m278.891-3.454h2.662v11.617h-2.662zm-18.855 0h2.662v11.617h-2.662zm-108.04 0h2.662v11.617h-2.662zm-5.213 11.617-3.146-8.537-3.124 8.537h-2.861l4.775-11.705h2.398l4.753 11.705z" transform="matrix(1 0 0 -1 0 552.756)"/></clipPath><g enable-background="new"><path d="m0 0h-203.576v237.207h889.999v-237.207h-202.655v1h201.655v235.207h-887.999v-235.207h202.576z" transform="matrix(1 0 0 -1 406.903 368.40269)"/><path d="m178.418 325.134h937.258v-96.659h-937.258z" fill="#3c98d2" transform="matrix(1 0 0 -1 0 552.756)"/><g fill="#001522"><path d="m180.935 184.363h-19.236v236.698h19.236z" transform="matrix(1 0 0 -1 0 552.756)"/><path d="m0 0v-18.29h22.542z" transform="matrix(1 0 0 -1 1093.1336 209.33219)"/><path d="m0 0v18.29h22.542z" transform="matrix(1 0 0 -1 1093.1336 342.57029)"/></g><g clip-path="url(#a)"><path d="m0 0v.164c0 16.909 12.188 30.167 28.755 30.167 11.174 0 18.363-4.968 23.209-12.013l-11.412-9.364c-3.127 4.06-6.717 6.794-11.951 6.794-7.661 0-13.052-6.962-13.052-15.416v-.168c0-8.698 5.391-15.496 13.052-15.496 5.699 0 9.062 2.818 12.342 7.042l11.412-8.615c-5.16-7.545-12.115-13.097-24.146-13.097-15.629 0-28.209 12.684-28.209 30.002" fill="#3c98d2" transform="matrix(1 0 0 -1 809.6453 186.44828)"/><path d="m0 0v2.073c-1.563.661-3.671 1.165-5.86 1.165-4.297 0-6.797-2.158-6.797-5.56v-.164c0-3.066 2.188-4.892 5.238-4.892 4.374 0 7.419 2.903 7.419 7.378m-26.881-3.398v.167c0 9.364 6.644 14.091 16.566 14.091 3.909 0 7.738-.748 10.161-1.741v.748c0 4.72-2.734 7.374-8.44 7.374-4.455 0-7.895-.997-11.724-2.486l-3.045 11.021c4.769 2.069 9.846 3.482 17.111 3.482 7.58 0 12.741-1.909 16.098-5.469 3.203-3.321 4.531-7.957 4.531-14.258v-25.775h-14.611v4.727c-2.969-3.399-6.955-5.72-12.504-5.72-8.048 0-14.143 4.972-14.143 13.839" fill="#3c98d2" transform="matrix(1 0 0 -1 888.7203 199.04569)"/><path d="m0 0v.168c0 5.965-3.909 10.195-8.674 10.195-4.843 0-8.672-4.23-8.672-10.195v-.168c0-5.965 3.829-10.189 8.672-10.189 4.765 0 8.674 4.14 8.674 10.189m-31.88 22.461h14.846v-5.965c2.891 3.727 6.485 6.958 12.817 6.958 10.084 0 18.762-8.867 18.762-23.202v-.168c0-14.587-8.678-23.454-18.685-23.454-6.409 0-10.16 3.066-12.894 6.465v-18.73h-14.846z" fill="#3c98d2" transform="matrix(1 0 0 -1 937.5372 192.91287)"/><path d="m954.306 382.304h14.769v-44.83802h-14.769zm-.314 15.664h15.395v-11.60102h-15.395z" fill="#3c98d2" transform="matrix(1 0 0 -1 0 552.756)"/><path d="m0 0v18.318h-5v12.594h5v11.353h14.769v-11.353h9.849v-12.594h-9.849v-15.251c0-3.151 1.332-4.476 4.066-4.476 1.951 0 3.825.581 5.623 1.49v-12.266c-2.658-1.573-6.172-2.65-10.311-2.65-8.909 0-14.147 4.14-14.147 14.835" fill="#3c98d2" transform="matrix(1 0 0 -1 975.8892 201.36389)"/><path d="m0 0v2.073c-1.566.661-3.678 1.165-5.867 1.165-4.294 0-6.797-2.158-6.797-5.56v-.164c0-3.066 2.192-4.892 5.237-4.892 4.378 0 7.427 2.903 7.427 7.378m-26.881-3.398v.167c0 9.364 6.637 14.091 16.566 14.091 3.902 0 7.735-.748 10.154-1.741v.748c0 4.72-2.734 7.374-8.437 7.374-4.454 0-7.895-.997-11.723-2.486l-3.049 11.021c4.769 2.069 9.846 3.482 17.118 3.482 7.577 0 12.734-1.909 16.094-5.469 3.203-3.321 4.535-7.957 4.535-14.258v-25.775h-14.615v4.727c-2.972-3.399-6.954-5.72-12.503-5.72-8.049 0-14.14 4.972-14.14 13.839" fill="#3c98d2" transform="matrix(1 0 0 -1 1028.2483 199.04569)"/><path d="m1045.24 397.968h14.769v-60.49802h-14.769z" fill="#3c98d2" transform="matrix(1 0 0 -1 0 552.756)"/><path d="m0 0c6.434 0 10.649 3.718 10.649 9.235v.12c0 5.997-4.159 9.115-10.427 9.115h-9.817v-18.47zm-13.977 22.848h14.532c8.763 0 14.532-5.038 14.532-13.313v-.12c0-9.055-6.989-13.732-15.253-13.732h-9.429v-14.812h-4.382z" transform="matrix(1 0 0 -1 256.1118 195.65439)"/><path d="m0 0-8.819 21.348-8.874-21.348zm-10.815 26.865h4.104l17.693-42.277h-4.714l-4.548 11.094h-21.133l-4.604-11.094h-4.492z" transform="matrix(1 0 0 -1 302.5928 199.3722)"/><path d="m0 0h4.382v-37.6h21.853v-4.377h-26.235z" transform="matrix(1 0 0 -1 319.4551 172.8068)"/><path d="m0 0h4.437l14.144-22.908 14.144 22.908h4.437v-41.977h-4.382v34.001l-14.144-22.487h-.221l-14.144 22.427v-33.941h-4.271z" transform="matrix(1 0 0 -1 352.0132 172.8068)"/><path d="m0 0-8.819 21.348-8.874-21.348zm-10.815 26.865h4.104l17.693-42.277h-4.714l-4.548 11.094h-21.133l-4.604-11.094h-4.492z" transform="matrix(1 0 0 -1 423.5645 199.3722)"/><path d="m0 0c5.824 0 9.984 3.238 9.984 8.635v.12c0 5.157-3.661 8.275-9.928 8.275h-11.981v-17.03zm-16.307 21.408h16.695c4.771 0 8.598-1.559 11.038-4.198 1.886-2.039 2.995-4.977 2.995-8.275v-.12c0-6.956-4.437-11.034-10.538-12.233l11.925-17.151h-5.38l-11.26 16.311h-11.093v-16.311h-4.382z" transform="matrix(1 0 0 -1 456.7335 194.215)"/><path d="m0 0-6.378 5.577 4.326 2.159 5.602-7.736zm-12.369-3.718h28.066v-4.318h-23.684v-14.332h21.188v-4.317h-21.188v-14.692h23.961v-4.318h-28.343z" transform="matrix(1 0 0 -1 491.1222 169.08899)"/><path d="m0 0 2.718 3.478c4.049-3.958 7.931-5.936 13.312-5.936 5.214 0 8.653 2.998 8.653 7.135v.12c0 3.898-1.942 6.117-10.095 7.976-8.93 2.099-13.035 5.217-13.035 12.113v.12c0 6.597 5.381 11.454 12.758 11.454 5.657 0 9.706-1.739 13.644-5.157l-2.552-3.658c-3.605 3.178-7.21 4.557-11.204 4.557-5.047 0-8.264-2.998-8.264-6.776v-.12c0-3.958 1.997-6.177 10.539-8.156 8.652-2.038 12.646-5.457 12.646-11.873v-.12c0-7.196-5.547-11.873-13.257-11.873-6.156 0-11.204 2.218-15.863 6.716" transform="matrix(1 0 0 -1 511.5894 208.66709)"/><path d="m0 0h27.899v-4.378h-23.517v-14.992h21.021v-4.317h-21.021v-18.29h-4.382z" transform="matrix(1 0 0 -1 562.7296 172.8068)"/><path d="m0 0c5.823 0 9.983 3.238 9.983 8.635v.12c0 5.157-3.66 8.275-9.928 8.275h-11.981v-17.03zm-16.308 21.408h16.696c4.77 0 8.597-1.559 11.038-4.198 1.886-2.039 2.995-4.977 2.995-8.275v-.12c0-6.956-4.438-11.034-10.539-12.233l11.926-17.151h-5.381l-11.259 16.311h-11.094v-16.311h-4.382z" transform="matrix(1 0 0 -1 613.647 194.215)"/><path d="m0 0-8.819 21.348-8.875-21.348zm-10.816 26.865h4.104l17.693-42.277h-4.713l-4.549 11.094h-21.132l-4.604-11.094h-4.493z" transform="matrix(1 0 0 -1 660.8491 199.3722)"/><path d="m0 0h4.104l24.46-33.642v33.642h4.272v-41.977h-3.495l-25.07 34.421v-34.421h-4.271z" transform="matrix(1 0 0 -1 677.7106 172.8068)"/><path d="m0 0v.12c0 11.873 8.209 21.708 19.635 21.708 7.044 0 11.26-2.699 15.142-6.657l-2.995-3.478c-3.272 3.359-6.933 5.757-12.203 5.757-8.597 0-15.03-7.555-15.03-17.21v-.12c0-9.715 6.489-17.33 15.03-17.33 5.325 0 8.819 2.218 12.536 6.056l2.884-3.058c-4.049-4.438-8.486-7.376-15.53-7.376-11.204 0-19.469 9.534-19.469 21.588" transform="matrix(1 0 0 -1 718.0338 193.91519)"/><path d="m0 0h28.065v-4.318h-23.683v-14.332h21.187v-4.317h-21.187v-14.693h23.961v-4.317h-28.343z" transform="matrix(1 0 0 -1 758.9127 172.8068)"/><path d="m0 0-5.677 4.854 2.297 2.557 5.677-5.157c1.646 2.167 2.557 4.896 2.557 7.931v.086c0 6.89-5.027 12.524-11.961 12.524s-11.874-5.547-11.874-12.438v-.086c0-6.89 5.027-12.524 11.961-12.524 2.687 0 5.113.823 7.02 2.253m6.457-5.807-4.03 3.597c-2.557-1.993-5.807-3.207-9.534-3.207-9.23 0-15.427 7.237-15.427 15.602v.086c0 8.364 6.284 15.687 15.514 15.687s15.427-7.237 15.427-15.601v-.086c0-3.77-1.344-7.368-3.597-10.141l3.987-3.38z" transform="matrix(1 0 0 -1 444.4561 378.1725)"/><path d="m0 0v17.638h3.423v-17.421c0-6.544 3.511-10.228 9.274-10.228 5.59 0 9.144 3.381 9.144 10.011v17.638h3.423v-17.378c0-8.84-5.07-13.434-12.654-13.434-7.497 0-12.61 4.594-12.61 13.174" transform="matrix(1 0 0 -1 458.236 370.3717)"/><path d="m0 0-6.89 15.428-6.934-15.428zm-8.451 19.414h3.207l13.824-30.551h-3.683l-3.554 8.017h-16.51l-3.597-8.017h-3.51z" transform="matrix(1 0 0 -1 509.8907 371.93229)"/><path d="m0 0h3.423v-27.172h17.075v-3.163h-20.498z" transform="matrix(1 0 0 -1 523.0635 352.73399)"/><path d="m548.805 200.022h3.42299v-30.33499h-3.42299z" transform="matrix(1 0 0 -1 0 552.756)"/><path d="m0 0h-10.184v3.164h23.834v-3.164h-10.183v-27.171h-3.467z" transform="matrix(1 0 0 -1 567.7402 355.89808)"/><path d="m0 0 3.424-1.56-4.984-4.03h-2.773zm-13.954-8.276h21.928v-3.121h-18.504v-10.357h16.554v-3.12h-16.554v-10.617h18.72v-3.12h-22.144z" transform="matrix(1 0 0 -1 600.3707 344.4577)"/><path d="m0 0v-24.008h7.106c7.671 0 12.568 5.2 12.568 11.918v.086c0 6.717-4.897 12.004-12.568 12.004zm-3.424 3.164h10.53c9.535 0 16.122-6.544 16.122-15.081v-.087c0-8.537-6.587-15.167-16.122-15.167h-10.53z" transform="matrix(1 0 0 -1 629.1011 355.89808)"/><path d="m0 0h21.928v-3.121h-18.504v-10.357h16.554v-3.12h-16.554v-10.617h18.721v-3.12h-22.145z" transform="matrix(1 0 0 -1 658.1782 352.73399)"/><path d="m0 0 2.123 2.514c3.164-2.861 6.197-4.29 10.4-4.29 4.075 0 6.761 2.167 6.761 5.156v.087c0 2.817-1.516 4.421-7.888 5.763-6.976 1.517-10.183 3.771-10.183 8.754v.087c0 4.767 4.204 8.277 9.968 8.277 4.42 0 7.583-1.257 10.66-3.727l-1.993-2.643c-2.818 2.296-5.634 3.293-8.754 3.293-3.944 0-6.457-2.167-6.457-4.897v-.086c0-2.86 1.56-4.464 8.233-5.894 6.761-1.473 9.881-3.944 9.881-8.581v-.085c0-5.202-4.334-8.582-10.357-8.582-4.81 0-8.754 1.604-12.394 4.854" transform="matrix(1 0 0 -1 695.4459 378.64909)"/><path d="m0 0h21.928v-3.121h-18.504v-10.357h16.554v-3.12h-16.554v-10.617h18.721v-3.12h-22.145z" transform="matrix(1 0 0 -1 723.7866 352.73399)"/><path d="m0 0c4.551 0 7.801 2.34 7.801 6.24v.086c0 3.728-2.861 5.981-7.757 5.981h-9.36v-12.307zm-12.74 15.471h13.044c3.726 0 6.717-1.127 8.624-3.034 1.472-1.474 2.34-3.597 2.34-5.98v-.087c0-5.027-3.467-7.974-8.234-8.841l9.317-12.393h-4.204l-8.796 11.787h-8.667v-11.787h-3.424z" transform="matrix(1 0 0 -1 764.1744 368.20469)"/><path d="m0 0h3.813l10.791-26.132 10.833 26.132h3.684l-13.044-30.552h-3.034z" transform="matrix(1 0 0 -1 778.7778 352.73399)"/><path d="m812.796 200.022h3.423v-30.33499h-3.423z" transform="matrix(1 0 0 -1 0 552.756)"/><path d="m0 0v.086c0 8.58 6.413 15.687 15.34 15.687 5.504 0 8.797-1.95 11.831-4.81l-2.341-2.513c-2.557 2.427-5.416 4.16-9.533 4.16-6.717 0-11.744-5.461-11.744-12.437v-.087c0-7.02 5.07-12.524 11.744-12.524 4.16 0 6.89 1.604 9.794 4.377l2.253-2.21c-3.163-3.207-6.63-5.331-12.134-5.331-8.754 0-15.21 6.891-15.21 15.602" transform="matrix(1 0 0 -1 822.3716 367.98789)"/><path d="m0 0h21.928v-3.121h-18.504v-10.357h16.554v-3.12h-16.554v-10.617h18.721v-3.12h-22.145z" transform="matrix(1 0 0 -1 854.3082 352.73399)"/><path d="m0 0v1.2c-.912.264-2.136.528-3.648.528-2.329 0-3.624-1.008-3.624-2.568v-.049c0-1.559 1.439-2.471 3.12-2.471 2.28 0 4.152 1.391 4.152 3.36m-9.145-.96v.048c0 2.616 2.16 4.008 5.305 4.008 1.584 0 2.712-.216 3.816-.528v.432c0 2.232-1.368 3.385-3.696 3.385-1.465 0-2.616-.385-3.769-.912l-.552 1.511c1.368.624 2.712 1.033 4.513 1.033 1.752 0 3.096-.456 4.008-1.369.84-.839 1.272-2.04 1.272-3.624v-7.585h-1.776v1.873c-.864-1.128-2.304-2.136-4.489-2.136-2.303 0-4.632 1.319-4.632 3.864" transform="matrix(1 0 0 -1 569.2056 456.55229)"/><path d="m0 0h2.041l4.176-10.297 4.2 10.297h1.992l-5.4-12.505h-1.633z" transform="matrix(1 0 0 -1 572.9009 448.70368)"/><path d="m0 0c-.191 2.256-1.488 4.225-3.96 4.225-2.16 0-3.792-1.801-4.032-4.225zm-9.865-.72v.048c0 3.576 2.521 6.456 5.953 6.456 3.673 0 5.784-2.928 5.784-6.553 0-.239 0-.383-.023-.599h-9.841c.263-2.689 2.16-4.2 4.368-4.2 1.704 0 2.904.696 3.912 1.752l1.152-1.033c-1.248-1.391-2.76-2.328-5.112-2.328-3.408 0-6.193 2.616-6.193 6.457" transform="matrix(1 0 0 -1 596.5416 454.22419)"/><path d="m0 0v.048c0 3.505 2.736 6.48 6.36 6.48 2.353 0 3.817-.983 4.969-2.208l-1.224-1.296c-.984 1.033-2.088 1.872-3.768 1.872-2.521 0-4.441-2.136-4.441-4.8v-.048c0-2.689 1.968-4.824 4.561-4.824 1.584 0 2.808.792 3.792 1.847l1.176-1.103c-1.248-1.393-2.737-2.401-5.065-2.401-3.624 0-6.36 2.953-6.36 6.433" transform="matrix(1 0 0 -1 600.1168 454.96839)"/><g fill="#02273d"><path d="m0 0c-.259 1.391-.907 2.168-2.072 2.168-.938 0-1.585-.485-1.585-1.391 0-2.719 6.796-3.819 6.796-8.997 0-3.107-2.137-4.692-5.081-4.692-3.171 0-4.984 1.812-5.534 4.854l3.171.874c.227-1.456.745-2.752 2.395-2.752.939 0 1.618.551 1.618 1.522 0 3.009-6.796 4.142-6.796 8.899 0 2.751 2.136 4.661 4.855 4.661 2.847 0 4.757-1.91 5.307-4.629z" transform="matrix(1 0 0 -1 630.3182 448.48149)"/><path d="m0 0v2.978h2.006v4.692h3.625v-4.692h2.427v-2.978h-2.427v-10.032c0-.905.388-1.424 1.23-1.424h1.197v-3.107c-.486-.129-.906-.194-1.812-.194-2.719 0-4.24 1.262-4.24 3.916v10.841z" transform="matrix(1 0 0 -1 634.8809 446.63688)"/><path d="m0 0c-3.3-1.876-4.11-3.074-4.11-4.595 0-1.134.582-1.587 1.683-1.587 1.004 0 1.812.745 2.427 1.619zm-7.476 3.463c.194 3.527 2.428 5.437 5.826 5.437 3.366 0 5.276-1.554 5.276-4.725v-11.165c0-.55.128-1.262.225-1.845h-3.462c-.033.486-.162.939-.194 1.36-1.36-1.101-2.492-1.683-4.24-1.683-2.459 0-3.689 1.683-3.689 3.915 0 3.82 2.523 5.923 7.734 7.896v1.037c0 1.456-.582 2.232-1.78 2.232-1.649 0-2.006-.97-2.071-2.459z" transform="matrix(1 0 0 -1 652.3881 452.2356)"/><path d="m0 0v2.978h2.007v4.692h3.625v-4.692h2.427v-2.978h-2.427v-10.032c0-.905.388-1.424 1.229-1.424h1.198v-3.107c-.486-.129-.906-.194-1.812-.194-2.719 0-4.24 1.262-4.24 3.916v10.841z" transform="matrix(1 0 0 -1 658.2444 446.63688)"/><path d="m668.698 109.097h3.625v-17.410992h-3.625zm0 4.736h3.625v-3.301h-3.625z" transform="matrix(1 0 0 -1 0 552.756)"/><path d="m0 0c-.26 1.391-.907 2.168-2.072 2.168-.938 0-1.585-.485-1.585-1.391 0-2.719 6.795-3.819 6.795-8.997 0-3.107-2.136-4.692-5.081-4.692-3.171 0-4.983 1.812-5.534 4.854l3.172.874c.227-1.456.744-2.752 2.395-2.752.939 0 1.618.551 1.618 1.522 0 3.009-6.797 4.142-6.797 8.899 0 2.751 2.136 4.661 4.856 4.661 2.848 0 4.757-1.91 5.307-4.629z" transform="matrix(1 0 0 -1 682.4521 448.48149)"/><path d="m0 0v2.978h2.007v4.692h3.624v-4.692h2.427v-2.978h-2.427v-10.032c0-.905.388-1.424 1.23-1.424h1.197v-3.107c-.485-.129-.906-.194-1.813-.194-2.718 0-4.238 1.262-4.238 3.916v10.841z" transform="matrix(1 0 0 -1 687.0145 446.63688)"/><path d="m0 0c-3.301-1.876-4.111-3.074-4.111-4.595 0-1.134.583-1.587 1.683-1.587 1.004 0 1.814.745 2.428 1.619zm-7.476 3.463c.194 3.527 2.428 5.437 5.825 5.437 3.366 0 5.276-1.554 5.276-4.725v-11.165c0-.55.129-1.262.226-1.845h-3.462c-.033.486-.163.939-.195 1.36-1.359-1.101-2.492-1.683-4.24-1.683-2.459 0-3.689 1.683-3.689 3.915 0 3.82 2.524 5.923 7.735 7.896v1.037c0 1.456-.583 2.232-1.78 2.232-1.65 0-2.007-.97-2.071-2.459z" transform="matrix(1 0 0 -1 704.5222 452.2356)"/><path d="m0 0c-1.79-.93-3.122-2.855-3.122-2.855-.34-.49-.714-1.03-.833-1.2-.118-.17-.239-.341-.269-.379-.03-.039-.172-.237-.253-.355-.082-.118-.426-.615-.766-1.104 0 0-2.036-2.941-4.923-4.44-2.998-1.558-6.923-1.458-7.244-1.447v-1.614c0-.434.352-.786.786-.786h20.876c.435 0 .786.352.786.786v14.24l-.204-.023s-3.38-.067-4.834-.823m4.252 8.268h-20.876c-.434 0-.786-.352-.786-.785v-14.226l.114.008s3.38.068 4.833.822c1.791.931 3.124 2.856 3.124 2.856.338.49.713 1.029.832 1.2.119.17.24.34.269.379.032.039.171.238.254.355.081.117.426.614.765 1.104 0 0 2.035 2.941 4.923 4.441 3.129 1.626 7.267 1.445 7.267 1.445l.067-.007v1.623c0 .433-.351.785-.786.785" transform="matrix(1 0 0 -1 732.5945 447.21369)"/></g><path d="m0 0h15.998l13.033-21.149 13.033 21.149h15.998v-54.627h-15.062v31.371l-13.969-21.382h-.312l-13.891 21.304v-31.293h-14.828z" fill="#fff" transform="matrix(1 0 0 -1 203.9888 248.58618)"/><path d="m0 0h43.936v-12.799h-28.953v-8.35h26.222v-11.939h-26.222v-8.663h29.343v-12.876h-44.326z" fill="#fff" transform="matrix(1 0 0 -1 269.3864 248.58618)"/><path d="m320.738 304.17h15.14003v-54.62698h-15.14003z" fill="#fff" transform="matrix(1 0 0 -1 0 552.756)"/><path d="m0 0h15.14v-41.361h26.455v-13.266h-41.595z" fill="#fff" transform="matrix(1 0 0 -1 343.9148 248.58618)"/><path d="m0 0h15.14v-41.361h26.455v-13.266h-41.595z" fill="#fff" transform="matrix(1 0 0 -1 392.0648 248.58618)"/><path d="m0 0h43.936v-12.799h-28.952v-8.35h26.221v-11.939h-26.221v-8.663h29.342v-12.876h-44.326z" fill="#fff" transform="matrix(1 0 0 -1 440.6047 248.58618)"/><path d="m0 0v30.67h15.296v-30.357c0-7.882 3.98-11.629 10.067-11.629 6.165 0 10.145 3.59 10.145 11.239v30.747h15.296v-30.279c0-17.56-10.067-25.364-25.597-25.364-15.452 0-25.207 7.882-25.207 24.973" fill="#fff" transform="matrix(1 0 0 -1 492.1118 279.25599)"/><path d="m0 0c5.073 0 8.116 2.498 8.116 6.477v.157c0 4.37-3.2 6.555-8.194 6.555h-9.989v-13.189zm-25.207 26.221h25.831c8.351 0 14.125-2.185 17.793-5.852 3.2-3.2 4.839-7.336 4.839-12.721v-.156c0-8.428-4.449-13.969-11.238-16.857l13.033-19.041h-17.403l-11.004 16.544h-6.711v-16.544h-15.14z" fill="#fff" transform="matrix(1 0 0 -1 575.9263 274.8076)"/><path d="m0 0h43.936v-12.799h-28.952v-8.35h26.221v-11.939h-26.221v-8.663h29.343v-12.876h-44.327z" fill="#fff" transform="matrix(1 0 0 -1 606.0497 248.58618)"/><path d="m0 0h43.917v-12.792h-28.94v-8.347h26.21v-11.936h-26.21v-8.658h29.33v-12.871h-44.307z" fill="#001522" transform="matrix(1 0 0 -1 691.3685 248.64929)"/><path d="m0 0h14.12l22.465-28.862v28.862h14.977v-54.604h-13.183l-23.402 29.954v-29.954h-14.977z" fill="#001522" transform="matrix(1 0 0 -1 742.3007 248.64929)"/><path d="m0 0 8.425 10.063c5.46-4.29 11.388-6.552 17.707-6.552 4.134 0 6.318 1.404 6.318 3.744v.156c0 2.34-1.795 3.511-9.283 5.304-11.622 2.653-20.593 5.929-20.593 17.084v.155c0 10.141 8.035 17.474 21.14 17.474 9.282 0 16.536-2.496 22.465-7.255l-7.567-10.687c-4.992 3.589-10.452 5.383-15.288 5.383-3.667 0-5.46-1.482-5.46-3.51v-.156c0-2.496 1.871-3.588 9.515-5.304 12.482-2.731 20.282-6.787 20.282-17.006v-.156c0-11.154-8.814-17.785-22.075-17.785-9.673 0-18.8 3.042-25.586 9.048" fill="#001522" transform="matrix(1 0 0 -1 797.8356 295.141)"/><path d="m0 0h43.917v-12.792h-28.94v-8.347h26.21v-11.936h-26.21v-8.658h29.33v-12.871h-44.307z" fill="#001522" transform="matrix(1 0 0 -1 851.6531 248.64929)"/><path d="m903.757 304.107h15.13206v-54.60401h-15.13206z" fill="#001522" transform="matrix(1 0 0 -1 0 552.756)"/><path d="m0 0v.156c0 15.913 12.48 28.394 29.33 28.394 9.594 0 16.381-2.886 22.154-7.878l-8.893-10.765c-3.9 3.276-7.723 5.148-13.184 5.148-7.878 0-13.962-6.552-13.962-14.899v-.156c0-8.893 6.163-15.212 14.821-15.212 3.744 0 6.552.781 8.736 2.263v6.63h-10.687v11.077h25.04v-24.493c-5.772-4.837-13.729-8.503-23.713-8.503-17.005 0-29.642 11.701-29.642 28.238" fill="#001522" transform="matrix(1 0 0 -1 926.2977 276.10728)"/><path d="m0 0h14.12l22.465-28.862v28.862h14.977v-54.604h-13.183l-23.402 29.954v-29.954h-14.977z" fill="#001522" transform="matrix(1 0 0 -1 987.6813 248.64929)"/><path d="m0 0h43.917v-12.792h-28.94v-8.347h26.21v-11.936h-26.21v-8.658h29.33v-12.871h-44.307z" fill="#001522" transform="matrix(1 0 0 -1 1048.519 248.64929)"/><path d="m0 0-1.449 1.863c7.141 5.278 12.316 13.765 12.316 24.217 0 11.488-7.451 21.113-17.801 21.113h-.207c-12.833 0-18.008-10.97-18.008-26.908v-2.484l-1.449-.725-32.083 28.151v-41.294h-2.07v44.295h1.656l31.876-27.943c.104 17.904 6.313 29.185 19.974 29.185h.208c11.694 0 19.974-10.763 19.974-23.493 0-11.281-5.382-20.285-12.937-25.977" transform="matrix(1 0 0 -1 133.2121 182.37308)"/><path d="m0 0-31.771 32.806c-10.762 11.176-16.661 12.936-21.939 12.936-8.796 0-16.351-7.866-16.351-19.146 0-10.556 6.21-18.007 14.592-22.56l-1.138-1.966c-9.004 4.864-15.524 12.936-15.524 24.63 0 12.729 8.28 21.318 18.214 21.318h.207c6.209 0 12.005-1.863 23.595-13.867l29.39-30.426v45.328h2.07v-49.053z" transform="matrix(1 0 0 -1 144.1803 368.84828)"/><path d="m0 0h-.207c-18.421 0-35.393-9.935-35.393-27.424s16.662-27.217 35.186-27.217h.207c18.421 0 35.393 9.934 35.393 27.424 0 17.489-16.662 27.217-35.186 27.217m-.104-56.918h-.206c-19.766 0-37.359 10.763-37.359 29.597 0 18.835 17.489 29.598 37.359 29.598h.206c19.767 0 37.359-10.763 37.359-29.598 0-18.834-17.489-29.597-37.359-29.597" transform="matrix(1 0 0 -1 109.5119 254.39368)"/><path d="m0 0-31.771 32.806c-10.762 11.176-16.661 12.936-21.939 12.936-8.796 0-16.351-7.866-16.351-19.146 0-10.556 6.21-18.007 14.592-22.56l-1.138-1.966c-9.004 4.864-15.524 12.936-15.524 24.63 0 12.729 8.28 21.318 18.214 21.318h.207c6.209 0 12.005-1.863 23.595-13.867l29.39-30.426v45.328h2.07v-49.053z" transform="matrix(1 0 0 -1 144.1803 244.97879)"/></g><g clip-path="url(#b)"><path d="m467.333 139.175h359.89408v16.965h-359.89408z" transform="matrix(1 0 0 -1 0 552.756)"/></g></g></svg>